<svg xmlns="http://www.w3.org/2000/svg" id="svg"><circle cx="1084.5" cy="654.5" r="268.0046444524475" fill="none" stroke="black"></circle><circle cx="1078.0601935838167" cy="702.2104804245893" r="3" fill="black" stroke="black"></circle><circle cx="1191.8741730966215" cy="646.4866020243426" r="3" fill="black" stroke="black"></circle><circle cx="1184.0871752120509" cy="848.045292663881" r="3" fill="black" stroke="black"></circle><circle cx="1322.295174640629" cy="707.5489396566312" r="3" fill="black" stroke="black"></circle><circle cx="1105.5988393069488" cy="672.9297981254466" r="3" fill="black" stroke="black"></circle><circle cx="973.0687290191929" cy="630.5244095468327" r="3" fill="black" stroke="black"></circle><circle cx="1217.3421054599805" cy="689.8062169005442" r="3" fill="black" stroke="black"></circle><circle cx="1233.3962222527227" cy="618.0793615108915" r="3" fill="black" stroke="black"></circle><circle cx="1058.0123974821404" cy="591.520940567631" r="3" fill="black" stroke="black"></circle><circle cx="1092.2944077987015" cy="653.898255700598" r="3" fill="black" stroke="black"></circle><circle cx="867.095958913788" cy="614.4059397584371" r="3" fill="black" stroke="black"></circle><circle cx="1120.5214562540068" cy="481.71335959683495" r="3" fill="black" stroke="black"></circle><circle cx="1156.5406276577853" cy="517.0191350012224" r="3" fill="black" stroke="black"></circle><circle cx="1255.152861173465" cy="800.4500241297942" r="3" fill="black" stroke="black"></circle><circle cx="1069.180521963815" cy="480.9191842870359" r="3" fill="black" stroke="black"></circle><circle cx="1104.0217582798762" cy="874.5000459880031" r="3" fill="black" stroke="black"></circle><circle cx="1011.0293795710073" cy="872.6444584820074" r="3" fill="black" stroke="black"></circle><circle cx="1295.4409806447572" cy="534.4578028626224" r="3" fill="black" stroke="black"></circle><circle cx="1018.326256737905" cy="480.5603501877542" r="3" fill="black" stroke="black"></circle><circle cx="868.9443792030263" cy="727.7618579744171" r="3" fill="black" stroke="black"></circle><circle cx="1107.4456149058776" cy="743.1134386271923" r="3" fill="black" stroke="black"></circle><circle cx="1156.75465242985" cy="446.6185486999779" r="3" fill="black" stroke="black"></circle><circle cx="1011.5783738373061" cy="759.4978184789263" r="3" fill="black" stroke="black"></circle><circle cx="918.6763703376872" cy="816.680773782084" r="3" fill="black" stroke="black"></circle><circle cx="1141.2916236686308" cy="640.2852108260793" r="3" fill="black" stroke="black"></circle><circle cx="879.5393710460067" cy="566.5321474112761" r="3" fill="black" stroke="black"></circle><circle cx="996.2947235148284" cy="674.3562325455292" r="3" fill="black" stroke="black"></circle><circle cx="1070.7371914303963" cy="638.5558432344146" r="3" fill="black" stroke="black"></circle><circle cx="968.2479622049607" cy="480.71904131746555" r="3" fill="black" stroke="black"></circle><circle cx="1028.8456216764598" cy="712.488689900488" r="3" fill="black" stroke="black"></circle><line x1="1078.0601935838167" y1="702.2104804245893" x2="1107.4456149058776" y2="743.1134386271923" stroke="black"></line><line x1="1078.0601935838167" y1="702.2104804245893" x2="1028.8456216764598" y2="712.488689900488" stroke="black"></line><line x1="1078.0601935838167" y1="702.2104804245893" x2="1092.2944077987015" y2="653.898255700598" stroke="black"></line><line x1="1191.8741730966215" y1="646.4866020243426" x2="1233.3962222527227" y2="618.0793615108915" stroke="black"></line><line x1="1191.8741730966215" y1="646.4866020243426" x2="1217.3421054599805" y2="689.8062169005442" stroke="black"></line><line x1="1191.8741730966215" y1="646.4866020243426" x2="1141.2916236686308" y2="640.2852108260793" stroke="black"></line><line x1="1105.5988393069488" y1="672.9297981254466" x2="1070.7371914303963" y2="638.5558432344146" stroke="black"></line><line x1="1105.5988393069488" y1="672.9297981254466" x2="1141.2916236686308" y2="640.2852108260793" stroke="black"></line><line x1="973.0687290191929" y1="630.5244095468327" x2="996.2947235148284" y2="674.3562325455292" stroke="black"></line><line x1="1217.3421054599805" y1="689.8062169005442" x2="1191.8741730966215" y2="646.4866020243426" stroke="black"></line><line x1="1233.3962222527227" y1="618.0793615108915" x2="1191.8741730966215" y2="646.4866020243426" stroke="black"></line><line x1="1058.0123974821404" y1="591.520940567631" x2="1070.7371914303963" y2="638.5558432344146" stroke="black"></line><line x1="1092.2944077987015" y1="653.898255700598" x2="1078.0601935838167" y2="702.2104804245893" stroke="black"></line><line x1="1092.2944077987015" y1="653.898255700598" x2="1141.2916236686308" y2="640.2852108260793" stroke="black"></line><line x1="867.095958913788" y1="614.4059397584371" x2="879.5393710460067" y2="566.5321474112761" stroke="black"></line><line x1="1120.5214562540068" y1="481.71335959683495" x2="1156.5406276577853" y2="517.0191350012224" stroke="black"></line><line x1="1120.5214562540068" y1="481.71335959683495" x2="1069.180521963815" y2="480.9191842870359" stroke="black"></line><line x1="1120.5214562540068" y1="481.71335959683495" x2="1156.75465242985" y2="446.6185486999779" stroke="black"></line><line x1="1156.5406276577853" y1="517.0191350012224" x2="1120.5214562540068" y2="481.71335959683495" stroke="black"></line><line x1="1069.180521963815" y1="480.9191842870359" x2="1120.5214562540068" y2="481.71335959683495" stroke="black"></line><line x1="1069.180521963815" y1="480.9191842870359" x2="1018.326256737905" y2="480.5603501877542" stroke="black"></line><line x1="1018.326256737905" y1="480.5603501877542" x2="1069.180521963815" y2="480.9191842870359" stroke="black"></line><line x1="1018.326256737905" y1="480.5603501877542" x2="968.2479622049607" y2="480.71904131746555" stroke="black"></line><line x1="1107.4456149058776" y1="743.1134386271923" x2="1078.0601935838167" y2="702.2104804245893" stroke="black"></line><line x1="1156.75465242985" y1="446.6185486999779" x2="1120.5214562540068" y2="481.71335959683495" stroke="black"></line><line x1="1011.5783738373061" y1="759.4978184789263" x2="1028.8456216764598" y2="712.488689900488" stroke="black"></line><line x1="1141.2916236686308" y1="640.2852108260793" x2="1092.2944077987015" y2="653.898255700598" stroke="black"></line><line x1="1141.2916236686308" y1="640.2852108260793" x2="1191.8741730966215" y2="646.4866020243426" stroke="black"></line><line x1="1141.2916236686308" y1="640.2852108260793" x2="1105.5988393069488" y2="672.9297981254466" stroke="black"></line><line x1="879.5393710460067" y1="566.5321474112761" x2="867.095958913788" y2="614.4059397584371" stroke="black"></line><line x1="996.2947235148284" y1="674.3562325455292" x2="973.0687290191929" y2="630.5244095468327" stroke="black"></line><line x1="996.2947235148284" y1="674.3562325455292" x2="1028.8456216764598" y2="712.488689900488" stroke="black"></line><line x1="1070.7371914303963" y1="638.5558432344146" x2="1105.5988393069488" y2="672.9297981254466" stroke="black"></line><line x1="1070.7371914303963" y1="638.5558432344146" x2="1058.0123974821404" y2="591.520940567631" stroke="black"></line><line x1="968.2479622049607" y1="480.71904131746555" x2="1018.326256737905" y2="480.5603501877542" stroke="black"></line><line x1="1028.8456216764598" y1="712.488689900488" x2="1078.0601935838167" y2="702.2104804245893" stroke="black"></line><line x1="1028.8456216764598" y1="712.488689900488" x2="1011.5783738373061" y2="759.4978184789263" stroke="black"></line><line x1="1028.8456216764598" y1="712.488689900488" x2="996.2947235148284" y2="674.3562325455292" stroke="black"></line></svg>
